<?xml version="1.0" encoding="UTF-8" standalone="no"?><!DOCTYPE svg PUBLIC "-//W3C//DTD SVG 1.1//EN" "http://www.w3.org/Graphics/SVG/1.1/DTD/svg11.dtd"><svg width="100%" height="100%" viewBox="0 0 500 500" version="1.1" xmlns="http://www.w3.org/2000/svg" xmlns:xlink="http://www.w3.org/1999/xlink" xml:space="preserve" xmlns:serif="http://www.serif.com/" style="fill-rule:evenodd;clip-rule:evenodd;stroke-linejoin:round;stroke-miterlimit:2;"><circle cx="250" cy="250" r="250" style="fill:#7c69e3;"/><circle cx="250" cy="250" r="213.121" style="fill:#26234b;"/><rect x="176.543" y="337.481" width="118.137" height="20.249" style="fill:#1bc2ca;fill-rule:nonzero;stroke:#1bc2ca;stroke-width:7.63px;"/><path d="M151.338,293.731c-7.134,0 -13.727,-1.19 -19.777,-3.568c-6.05,-2.378 -11.278,-5.91 -15.685,-10.596c-4.406,-4.687 -7.834,-10.527 -10.282,-17.522c-2.448,-6.994 -3.672,-15.108 -3.672,-24.34l0,-13.115l-44.065,0l0,-26.02l137.127,0l0,40.184c0,8.883 -0.962,16.734 -2.885,23.554c-1.924,6.819 -4.739,12.555 -8.446,17.206c-3.707,4.652 -8.271,8.184 -13.692,10.597c-5.421,2.413 -11.628,3.62 -18.623,3.62Z" style="fill:#1bc2ca;fill-rule:nonzero;stroke:#1bc2ca;stroke-width:7.63px;"/><path d="M379.92,223.96c0,12.451 -1.452,23.187 -4.355,32.21c-2.902,9.023 -6.889,16.437 -11.96,22.243c-5.071,5.805 -11.016,10.107 -17.836,12.904c-6.82,2.798 -14.111,4.197 -21.875,4.197c-18.046,0 -31.615,-5.998 -40.708,-17.993c-9.093,-11.996 -13.64,-29.43 -13.64,-52.302c0,-12.45 1.452,-23.186 4.354,-32.209c2.903,-9.023 6.89,-16.437 11.961,-22.243c5.071,-5.805 11.016,-10.107 17.836,-12.905c6.82,-2.797 14.111,-4.196 21.875,-4.196c18.046,0 31.615,5.98 40.708,17.941c9.093,11.96 13.64,29.411 13.64,52.353Z" style="fill:#1bc2ca;fill-rule:nonzero;stroke:#1bc2ca;stroke-width:7.63px;"/></svg>